<svg xmlns="http://www.w3.org/2000/svg" width="225" height="225" viewBox="0 0 225 225" version="1.1"><path d="M 61 111 L 61 152 99 152 L 137 152 137 111 L 137 70 99 70 L 61 70 61 111 M 70 111 L 70 144 99 144 L 128 144 128 111 L 128 78 99 78 L 70 78 70 111 M 85.458 101.880 C 79.614 104.535, 77.715 108.033, 77.259 116.988 C 76.810 125.823, 78.520 130.138, 83.898 133.730 C 89.427 137.424, 100.967 136.365, 104.738 131.817 C 105.753 130.592, 105.525 129.902, 103.461 127.963 C 101.025 125.674, 100.856 125.654, 98.069 127.300 C 94.242 129.561, 90.448 129.448, 88 127 C 85.258 124.258, 85.082 112.116, 87.750 109.773 C 90.705 107.179, 93.393 106.906, 97.147 108.820 C 100.702 110.632, 100.729 110.630, 103.554 108.200 C 106.321 105.820, 106.343 105.722, 104.446 104.273 C 98.559 99.776, 91.930 98.940, 85.458 101.880 M 144 148.529 L 144 153.058 157.250 152.779 L 170.500 152.500 170.807 148.250 L 171.115 144 157.557 144 L 144 144 144 148.529" stroke="none" fill="#f5ede1" fill-rule="evenodd"/><path d="M -0 112.504 L -0 225.009 112.750 224.754 L 225.500 224.500 225.754 112.250 L 226.009 0 113.004 0 L 0 0 -0 112.504 M 0.483 113 C 0.483 174.875, 0.603 200.188, 0.750 169.250 C 0.897 138.313, 0.897 87.688, 0.750 56.750 C 0.603 25.813, 0.483 51.125, 0.483 113 M 61 111 L 61 152 99 152 L 137 152 137 111 L 137 70 99 70 L 61 70 61 111 M 70 111 L 70 144 99 144 L 128 144 128 111 L 128 78 99 78 L 70 78 70 111 M 85.458 101.880 C 79.614 104.535, 77.715 108.033, 77.259 116.988 C 76.810 125.823, 78.520 130.138, 83.898 133.730 C 89.427 137.424, 100.967 136.365, 104.738 131.817 C 105.753 130.592, 105.525 129.902, 103.461 127.963 C 101.025 125.674, 100.856 125.654, 98.069 127.300 C 94.242 129.561, 90.448 129.448, 88 127 C 85.258 124.258, 85.082 112.116, 87.750 109.773 C 90.705 107.179, 93.393 106.906, 97.147 108.820 C 100.702 110.632, 100.729 110.630, 103.554 108.200 C 106.321 105.820, 106.343 105.722, 104.446 104.273 C 98.559 99.776, 91.930 98.940, 85.458 101.880 M 144 148.529 L 144 153.058 157.250 152.779 L 170.500 152.500 170.807 148.250 L 171.115 144 157.557 144 L 144 144 144 148.529" stroke="none" fill="#131333" fill-rule="evenodd"/></svg>