<svg xmlns="http://www.w3.org/2000/svg" width="200" height="200" viewBox="0 0 200 200" version="1.1"><path d="M 38.384 73.412 C 27.640 76.019, 19.334 83.357, 16.886 92.404 C 15.032 99.256, 16.273 109.289, 19.654 114.769 C 25.128 123.644, 37.730 128.836, 51 127.682 C 61.798 126.743, 63.684 125.677, 65.664 119.397 C 66.909 115.448, 67.074 113.674, 66.272 112.872 C 65.470 112.070, 64.753 112.576, 63.636 114.737 C 59.720 122.309, 51.210 126.231, 43.363 124.078 C 32.826 121.189, 26.994 112.469, 27.006 99.624 C 27.013 91.479, 28.463 86.682, 32.203 82.422 C 36.531 77.492, 40.541 75.678, 47.122 75.672 C 54.073 75.665, 58.566 78.075, 61.251 83.250 C 62.321 85.313, 63.602 87, 64.098 87 C 65.173 87, 65.290 77.004, 64.235 75.347 C 63.347 73.953, 53.200 71.967, 47.566 72.085 C 45.330 72.132, 41.198 72.729, 38.384 73.412 M 133.079 75.708 C 131.065 83.188, 130.720 86, 131.818 86 C 132.406 86, 133.662 84.688, 134.609 83.085 C 136.853 79.286, 139.867 78, 146.528 78 C 151.413 78, 152.022 78.240, 152.558 80.373 C 152.885 81.678, 153.006 91.840, 152.827 102.955 C 152.525 121.596, 152.349 123.274, 150.559 124.582 C 149.491 125.362, 147.579 126, 146.309 126 C 145.039 126, 144 126.450, 144 127 C 144 127.615, 149 128, 157 128 C 165 128, 170 127.615, 170 127 C 170 126.450, 169.070 126, 167.934 126 C 166.798 126, 164.998 125.534, 163.934 124.965 C 162.108 123.987, 162 122.646, 162 100.965 L 162 78 167.435 78 C 174.728 78, 177.875 79.342, 179.148 82.994 C 179.724 84.647, 180.543 86, 180.967 86 C 181.864 86, 182.973 80.018, 182.989 75.095 C 182.999 71.859, 182.909 71.772, 181.171 73.345 C 179.593 74.774, 176.491 75, 158.500 75 C 140.816 75, 137.390 74.758, 135.893 73.403 C 134.244 71.911, 134.060 72.062, 133.079 75.708 M 87.963 80.250 C 81.137 83.693, 80.142 89.565, 85.357 95.628 L 87.699 98.352 83.126 101.426 C 76.821 105.665, 74 110.157, 74 115.959 C 74 121.282, 76.188 124.345, 81.610 126.610 C 88.199 129.364, 93.696 128.129, 100.814 122.296 L 105.192 118.708 107.535 121.604 L 109.877 124.500 107.688 126.228 C 105.585 127.888, 106.019 127.956, 118.809 127.978 C 126.129 127.990, 131.878 127.612, 131.585 127.137 C 131.291 126.663, 128.902 125.675, 126.276 124.943 C 122.803 123.974, 120.019 122.133, 116.071 118.191 L 110.642 112.772 118.572 105.136 C 122.934 100.936, 127.402 96.964, 128.502 96.309 C 130.150 95.326, 128.926 95.111, 121.500 95.081 L 112.500 95.044 114.953 96.929 C 117.051 98.542, 117.249 99.158, 116.326 101.184 C 115.732 102.488, 113.999 105.037, 112.474 106.848 L 109.702 110.143 103.851 104.353 C 100.633 101.168, 98 98.223, 98 97.807 C 98 97.391, 99.307 96.375, 100.905 95.549 C 105.396 93.227, 107.003 91.141, 106.968 87.679 C 106.928 83.627, 105.218 81.407, 100.680 79.511 C 95.766 77.457, 93.204 77.606, 87.963 80.250 M 91.470 83.405 C 90.090 85.511, 90.068 86.227, 91.292 89.155 C 92.061 90.995, 93.457 93.136, 94.395 93.914 C 96.875 95.971, 99.223 93.274, 99.356 88.218 C 99.533 81.453, 94.687 78.496, 91.470 83.405 M 87.229 101.669 C 83.725 103.079, 81.925 111.547, 84.110 116.343 C 86.304 121.156, 94.077 122.470, 99.782 118.991 C 102.563 117.296, 102.906 116.692, 102.021 115.040 C 100.700 112.570, 90.001 100.973, 89.142 101.079 C 88.789 101.122, 87.928 101.388, 87.229 101.669" stroke="none" fill="#f6f6f6" fill-rule="evenodd"/><path d="M -0 100.005 L -0 200.010 100.250 199.755 L 200.500 199.500 200.755 99.750 L 201.010 0 100.505 0 L 0 0 -0 100.005 M 0.481 100.500 C 0.481 155.500, 0.602 178.147, 0.750 150.826 C 0.898 123.506, 0.898 78.506, 0.750 50.826 C 0.602 23.147, 0.481 45.500, 0.481 100.500 M 38.384 73.412 C 27.640 76.019, 19.334 83.357, 16.886 92.404 C 15.032 99.256, 16.273 109.289, 19.654 114.769 C 25.128 123.644, 37.730 128.836, 51 127.682 C 61.798 126.743, 63.684 125.677, 65.664 119.397 C 66.909 115.448, 67.074 113.674, 66.272 112.872 C 65.470 112.070, 64.753 112.576, 63.636 114.737 C 59.720 122.309, 51.210 126.231, 43.363 124.078 C 32.826 121.189, 26.994 112.469, 27.006 99.624 C 27.013 91.479, 28.463 86.682, 32.203 82.422 C 36.531 77.492, 40.541 75.678, 47.122 75.672 C 54.073 75.665, 58.566 78.075, 61.251 83.250 C 62.321 85.313, 63.602 87, 64.098 87 C 65.173 87, 65.290 77.004, 64.235 75.347 C 63.347 73.953, 53.200 71.967, 47.566 72.085 C 45.330 72.132, 41.198 72.729, 38.384 73.412 M 133.079 75.708 C 131.065 83.188, 130.720 86, 131.818 86 C 132.406 86, 133.662 84.688, 134.609 83.085 C 136.853 79.286, 139.867 78, 146.528 78 C 151.413 78, 152.022 78.240, 152.558 80.373 C 152.885 81.678, 153.006 91.840, 152.827 102.955 C 152.525 121.596, 152.349 123.274, 150.559 124.582 C 149.491 125.362, 147.579 126, 146.309 126 C 145.039 126, 144 126.450, 144 127 C 144 127.615, 149 128, 157 128 C 165 128, 170 127.615, 170 127 C 170 126.450, 169.070 126, 167.934 126 C 166.798 126, 164.998 125.534, 163.934 124.965 C 162.108 123.987, 162 122.646, 162 100.965 L 162 78 167.435 78 C 174.728 78, 177.875 79.342, 179.148 82.994 C 179.724 84.647, 180.543 86, 180.967 86 C 181.864 86, 182.973 80.018, 182.989 75.095 C 182.999 71.859, 182.909 71.772, 181.171 73.345 C 179.593 74.774, 176.491 75, 158.500 75 C 140.816 75, 137.390 74.758, 135.893 73.403 C 134.244 71.911, 134.060 72.062, 133.079 75.708 M 87.963 80.250 C 81.137 83.693, 80.142 89.565, 85.357 95.628 L 87.699 98.352 83.126 101.426 C 76.821 105.665, 74 110.157, 74 115.959 C 74 121.282, 76.188 124.345, 81.610 126.610 C 88.199 129.364, 93.696 128.129, 100.814 122.296 L 105.192 118.708 107.535 121.604 L 109.877 124.500 107.688 126.228 C 105.585 127.888, 106.019 127.956, 118.809 127.978 C 126.129 127.990, 131.878 127.612, 131.585 127.137 C 131.291 126.663, 128.902 125.675, 126.276 124.943 C 122.803 123.974, 120.019 122.133, 116.071 118.191 L 110.642 112.772 118.572 105.136 C 122.934 100.936, 127.402 96.964, 128.502 96.309 C 130.150 95.326, 128.926 95.111, 121.500 95.081 L 112.500 95.044 114.953 96.929 C 117.051 98.542, 117.249 99.158, 116.326 101.184 C 115.732 102.488, 113.999 105.037, 112.474 106.848 L 109.702 110.143 103.851 104.353 C 100.633 101.168, 98 98.223, 98 97.807 C 98 97.391, 99.307 96.375, 100.905 95.549 C 105.396 93.227, 107.003 91.141, 106.968 87.679 C 106.928 83.627, 105.218 81.407, 100.680 79.511 C 95.766 77.457, 93.204 77.606, 87.963 80.250 M 91.470 83.405 C 90.090 85.511, 90.068 86.227, 91.292 89.155 C 92.061 90.995, 93.457 93.136, 94.395 93.914 C 96.875 95.971, 99.223 93.274, 99.356 88.218 C 99.533 81.453, 94.687 78.496, 91.470 83.405 M 87.229 101.669 C 83.725 103.079, 81.925 111.547, 84.110 116.343 C 86.304 121.156, 94.077 122.470, 99.782 118.991 C 102.563 117.296, 102.906 116.692, 102.021 115.040 C 100.700 112.570, 90.001 100.973, 89.142 101.079 C 88.789 101.122, 87.928 101.388, 87.229 101.669" stroke="none" fill="#040404" fill-rule="evenodd"/></svg>