<?xml version="1.0" standalone="no"?>
<!DOCTYPE svg PUBLIC "-//W3C//DTD SVG 20010904//EN"
 "http://www.w3.org/TR/2001/REC-SVG-20010904/DTD/svg10.dtd">
<svg version="1.0" xmlns="http://www.w3.org/2000/svg"
 width="512.000000pt" height="512.000000pt" viewBox="0 0 512.000000 512.000000"
 preserveAspectRatio="xMidYMid meet">

<g transform="translate(0.000000,512.000000) scale(0.100000,-0.100000)"
fill="#000000" stroke="none">
<path d="M340 4718 c-69 -62 -126 -117 -128 -125 -8 -34 42 -5 138 78 l105 91
3 -2236 c2 -1920 4 -2236 16 -2236 8 0 16 5 18 10 2 8 2465 -1 3310 -13 l156
-2 -114 -103 c-77 -70 -111 -108 -107 -118 3 -8 12 -13 19 -10 23 9 274 240
274 253 0 15 -270 214 -281 207 -22 -13 -2 -37 93 -108 l102 -76 -603 0 -603
0 7 1509 c7 1472 7 1509 -11 1519 -27 14 -613 19 -637 6 -18 -10 -19 -72 -27
-1515 -5 -827 -9 -1505 -9 -1506 -1 -2 -100 -3 -221 -3 l-220 0 0 243 c0 133
5 995 11 1916 10 1412 9 1675 -2 1682 -8 5 -157 9 -332 9 l-317 0 -10 -22 c-5
-13 -13 -670 -19 -1533 -6 -830 -14 -1684 -17 -1897 l-7 -388 -213 0 -214 0 0
2203 1 2202 36 -40 c52 -59 111 -133 115 -147 2 -6 12 -9 21 -5 13 5 15 11 7
31 -15 40 -181 236 -199 235 -9 0 -72 -50 -141 -111z m1256 -940 c-3 -205 -8
-992 -11 -1748 -3 -756 -8 -1444 -11 -1527 l-6 -153 -298 0 -298 0 4 42 c2 24
8 786 14 1693 6 908 13 1741 16 1852 l6 202 107 4 c58 1 191 4 295 5 l189 2
-7 -372z m1112 -453 c2 -2 1 -675 -3 -1494 l-8 -1491 -296 0 -297 0 3 897 c2
494 6 1168 9 1498 l6 600 291 -3 c160 -2 293 -5 295 -7z"/>
<path d="M1191 4091 c-21 -21 -21 -28 -19 -219 l3 -197 59 -9 c145 -23 289 60
312 180 9 51 -20 124 -69 172 -53 52 -119 81 -200 89 -57 5 -67 3 -86 -16z
m194 -62 c99 -50 142 -153 96 -226 -37 -58 -92 -86 -182 -91 l-79 -5 0 178 0
177 59 -4 c35 -2 77 -14 106 -29z"/>
<path d="M2292 3073 l3 -208 105 1 c86 1 114 5 158 24 127 55 146 165 46 265
-69 68 -196 125 -281 125 l-33 0 2 -207z m93 153 c115 -31 202 -92 231 -162
19 -45 0 -93 -47 -121 -45 -28 -141 -46 -195 -38 l-44 6 0 165 c0 90 1 164 3
164 1 0 25 -6 52 -14z"/>
<path d="M2565 4110 c-72 -27 -119 -187 -105 -355 4 -48 9 -61 24 -63 17 -4
18 2 15 70 l-4 73 99 3 98 3 -3 -83 c-3 -68 -1 -83 11 -83 46 0 33 261 -18
361 -31 60 -77 89 -117 74z m82 -101 c12 -24 25 -63 29 -86 l7 -43 -92 0
c-104 0 -101 -3 -75 92 9 32 27 70 41 84 22 24 26 25 46 12 12 -8 32 -34 44
-59z"/>
<path d="M1811 4087 c-55 -27 -91 -137 -91 -277 0 -103 7 -132 29 -128 13 3
15 14 13 66 -3 55 -2 62 15 63 10 0 48 3 86 8 l67 7 0 -79 c0 -69 2 -78 18
-75 14 3 17 16 20 83 6 152 -35 291 -97 328 -34 20 -30 20 -60 4z m74 -77 c8
-16 21 -56 29 -88 l14 -60 -67 -4 c-110 -7 -112 -5 -86 97 27 104 73 127 110
55z"/>
<path d="M2157 4093 c-77 -3 -88 -6 -85 -21 3 -13 16 -18 65 -20 l63 -3 2
-187 c3 -158 5 -187 18 -187 13 0 15 29 18 193 l2 192 56 0 c47 0 55 3 52 18
-4 19 -32 21 -191 15z"/>
<path d="M3227 3273 c-4 -3 -7 -93 -7 -200 0 -147 3 -193 13 -194 49 -3 144 4
151 11 13 13 -36 30 -85 30 l-39 0 0 180 c0 143 -3 180 -13 180 -8 0 -17 -3
-20 -7z"/>
<path d="M2850 3086 c0 -192 3 -216 26 -216 11 0 14 33 14 184 0 192 -3 216
-26 216 -11 0 -14 -33 -14 -184z"/>
<path d="M2974 3258 c-6 -8 -8 -88 -6 -195 l4 -181 69 -4 c79 -3 89 -2 89 17
0 17 -23 25 -74 25 l-43 0 -5 166 c-5 159 -13 200 -34 172z"/>
<path d="M3491 3235 c-58 -74 -51 -341 10 -378 28 -17 64 0 83 40 24 49 33
202 17 271 -21 87 -70 117 -110 67z m76 -190 c-7 -191 -63 -213 -75 -29 -5 83
8 165 31 193 9 11 15 6 30 -25 14 -32 17 -58 14 -139z"/>
<path d="M3808 3123 l-3 -128 -45 119 c-42 110 -60 139 -78 121 -4 -3 -7 -85
-8 -181 0 -133 3 -177 13 -185 19 -16 22 0 25 131 l3 115 51 -130 c72 -183 79
-177 79 65 0 176 -2 195 -17 198 -16 3 -18 -10 -20 -125z"/>
</g>
</svg>
