<svg xmlns="http://www.w3.org/2000/svg" width="700" height="700" viewBox="0 0 700 700" version="1.1"><path d="M 0.082 30.250 C 0.160 59.538, 0.210 60.277, 1.642 53.500 C 3.499 44.710, 9.525 32.223, 15.490 24.809 C 24.298 13.860, 39.356 4.693, 53.516 1.659 C 60.304 0.205, 59.653 0.161, 30.250 0.082 L 0 0 0.082 30.250 M 646.500 1.642 C 655.290 3.499, 667.777 9.525, 675.191 15.490 C 686.140 24.298, 695.307 39.356, 698.341 53.516 C 699.795 60.304, 699.839 59.653, 699.918 30.250 L 700 0 669.750 0.082 C 640.462 0.160, 639.723 0.210, 646.500 1.642 M 483.737 229.696 C 475.040 230.454, 475.500 226.849, 475.500 294.171 C 475.500 349.242, 475.612 353.041, 477.285 354.714 C 478.960 356.389, 482.803 356.500, 538.999 356.500 C 595.189 356.500, 599.039 356.389, 600.714 354.715 C 602.380 353.050, 602.521 349.075, 602.807 295.715 C 603.121 236.968, 602.854 232.074, 599.241 230.401 C 597.468 229.579, 492.427 228.938, 483.737 229.696 M 166.302 247.958 C 163.434 249.183, 161 253.993, 161 258.435 C 161 260.926, 161.861 262.932, 163.918 265.234 C 166.395 268.006, 167.517 268.500, 171.337 268.500 C 176.226 268.500, 180.373 265.674, 182.118 261.153 C 183.289 258.121, 181.639 251.888, 179.045 249.541 C 176.777 247.488, 169.515 246.586, 166.302 247.958 M 496.400 250.400 C 490.866 255.934, 492.337 264.034, 499.494 267.430 C 506.401 270.708, 514 265.645, 514 257.765 C 514 252.255, 508.875 247, 503.500 247 C 500.625 247, 499.041 247.759, 496.400 250.400 M 97 293 L 97 338 125.500 338 L 154 338 154 329 L 154 320 135.500 320 L 117 320 117 284 L 117 248 107 248 L 97 248 97 293 M 261 293 L 261 338 270.500 338 L 280 338 280 324.500 C 280 317.075, 280.386 311, 280.859 311 C 281.331 311, 285.719 317.066, 290.609 324.480 L 299.500 337.959 311.250 337.980 C 317.712 337.991, 323 337.728, 323 337.395 C 323 337.063, 317.822 329.800, 311.493 321.256 C 301.677 308.003, 300.171 305.485, 301.243 304.113 C 301.934 303.228, 307.337 297.035, 313.250 290.350 C 319.163 283.666, 324 277.927, 324 277.598 C 324 277.269, 318.839 277, 312.532 277 L 301.064 277 291.282 288.394 C 283.771 297.143, 281.342 299.407, 280.820 298.144 C 280.446 297.240, 280.109 285.587, 280.070 272.250 L 280 248 270.500 248 L 261 248 261 293 M 437 265.687 L 437 283.374 434.250 280.751 C 430.289 276.972, 426.914 276, 417.751 276 C 405.008 276, 397.881 280.616, 392.378 292.435 C 389.130 299.410, 388.966 316.117, 392.079 323 C 399.193 338.734, 419.536 344.607, 433.543 334.971 C 435.917 333.337, 438.117 332, 438.430 332 C 438.744 332, 439 333.350, 439 335 L 439 338 447.500 338 L 456 338 456 293 L 456 248 446.500 248 L 437 248 437 265.687 M 219.302 277.688 C 217.543 278.685, 214.730 280.543, 213.052 281.818 L 210 284.136 210 280.568 L 210 277 201 277 L 192 277 192 307.500 L 192 338 201.500 338 L 211 338 211.024 321.250 C 211.051 302.436, 211.845 297.395, 215.190 294.822 C 218.260 292.460, 225.107 292.456, 228.020 294.815 C 231.042 297.262, 231.868 303.041, 231.940 322.250 L 232 338 241.500 338 L 251 338 251 318.832 C 251 290.746, 249.179 283.345, 241.107 278.631 C 236.205 275.767, 223.651 275.225, 219.302 277.688 M 340.006 278.213 C 336.301 279.635, 332.809 282.066, 329.278 285.684 C 322.579 292.545, 320.576 298.696, 321.195 310.501 C 321.693 319.985, 324.148 325.190, 331.072 331.446 C 337.676 337.412, 342.463 339.057, 353.795 339.254 C 362.660 339.407, 364.142 339.160, 369.057 336.709 C 372.051 335.216, 376.075 332.642, 378 330.990 C 380.877 328.519, 381.233 327.821, 380 327.065 C 379.175 326.559, 376.099 324.345, 373.165 322.144 L 367.830 318.143 363.339 321.571 C 357.946 325.688, 351.545 326.240, 346.299 323.040 C 343.678 321.443, 340 316.545, 340 314.655 C 340 314.410, 349.907 313.880, 362.015 313.477 L 384.030 312.744 383.429 306.122 C 382.434 295.146, 380.481 289.751, 375.493 284.204 C 369.827 277.901, 364.662 275.981, 353.572 276.052 C 347.866 276.089, 343.889 276.722, 340.006 278.213 M 553 277.530 C 551.075 278.396, 548.038 280.520, 546.250 282.249 L 543 285.392 543 281.696 L 543 278 534 278 L 525 278 525 308 L 525 338 534.381 338 L 543.763 338 544.182 318.750 C 544.617 298.777, 545.158 296.056, 549.113 293.940 C 552.190 292.293, 559.990 292.561, 561.805 294.377 C 563.994 296.565, 564.843 304.146, 564.927 322.250 L 565 338 574.500 338 L 584 338 583.980 319.250 C 583.949 290.565, 582.525 284.639, 574.306 279.007 C 569.882 275.976, 558.243 275.169, 553 277.530 M 162.667 277.667 C 162.300 278.033, 162 291.758, 162 308.167 L 162 338 171.500 338 L 181 338 181 307.500 L 181 277 172.167 277 C 167.308 277, 163.033 277.300, 162.667 277.667 M 494 308 L 494 338 503.500 338 L 513 338 513 308 L 513 278 503.500 278 L 494 278 494 308 M 345.775 291.454 C 341.897 294.144, 340 296.765, 340 299.434 C 340 300.768, 341.776 301, 352 301 C 363.836 301, 364 300.969, 364 298.712 C 364 297.454, 362.762 294.973, 361.250 293.199 C 357.298 288.563, 350.971 287.850, 345.775 291.454 M 416.467 293.942 C 411.248 296.598, 408.877 300.700, 408.721 307.342 C 408.570 313.786, 411.444 319.034, 416.417 321.394 C 426.705 326.276, 437.989 319.271, 437.995 308 C 438.001 295.848, 426.929 288.617, 416.467 293.942 M 97 421.934 L 97 454 113.500 454 L 130 454 130 451.500 L 130 449 116.515 449 L 103.030 449 102.765 419.750 L 102.500 390.500 99.750 390.184 L 97 389.867 97 421.934 M 299.427 395.765 C 296.196 397.978, 297.202 403.297, 301.043 404.301 C 303.309 404.894, 307 402.015, 307 399.655 C 307 396.594, 301.982 394.016, 299.427 395.765 M 145.327 414.046 C 140.516 415.518, 134.353 423.125, 133.050 429.201 C 131.252 437.588, 133.145 443.934, 139.165 449.689 C 143.373 453.712, 146.789 455, 153.249 455 C 161.398 455, 172.183 448.526, 170.658 444.551 C 169.814 442.351, 166.645 442.630, 164.407 445.102 C 159.707 450.297, 150.436 451.481, 144.570 447.638 C 141.737 445.782, 137.592 438.468, 138.521 436.966 C 138.867 436.406, 146.290 436, 156.187 436 L 173.256 436 172.585 431.750 C 170.801 420.445, 164.171 413.822, 154.160 413.345 C 151.047 413.197, 147.072 413.513, 145.327 414.046 M 190.383 414.084 C 186.037 415.345, 179.378 422.884, 177.960 428.149 C 176.534 433.445, 177.290 439.688, 180.001 445.002 C 185.475 455.733, 201.612 458.388, 210.053 449.947 C 211.982 448.018, 212 448.027, 212 451 C 212 453.667, 212.333 454, 215 454 L 218 454 218 434 L 218 414 215.500 414 C 213.284 414, 213 414.420, 213 417.696 L 213 421.392 209.685 418.179 C 204.730 413.377, 197.853 411.918, 190.383 414.084 M 240 414.088 C 238.625 414.617, 236.490 416.276, 235.255 417.775 L 233.010 420.500 233.005 417.250 C 233 414.307, 232.717 414, 230 414 L 227 414 227 434 L 227 454 230 454 L 233 454 233.044 443.250 C 233.068 437.337, 233.475 430.488, 233.950 428.029 C 234.976 422.711, 238.731 419, 243.087 419 C 246.448 419, 247.883 416.769, 245.989 414.487 C 244.586 412.796, 243.540 412.727, 240 414.088 M 263.500 415.414 C 260.750 416.832, 258.387 417.994, 258.250 417.996 C 258.113 417.998, 258 417.100, 258 416 C 258 414.533, 257.333 414, 255.500 414 L 253 414 253 434 L 253 454 255.473 454 L 257.947 454 258.223 439.358 L 258.500 424.717 262.343 421.608 C 265.495 419.059, 267.083 418.500, 271.179 418.500 C 275.411 418.500, 276.541 418.928, 278.587 421.306 C 280.905 424.001, 281 424.700, 281 439.056 L 281 454 284 454 L 287 454 287 439.468 C 287 423.793, 286.212 420.301, 281.751 416.190 C 277.749 412.503, 269.803 412.165, 263.500 415.414 M 329.791 413.988 C 328.302 414.437, 325.714 415.779, 324.041 416.971 L 321 419.136 321 416.568 C 321 414.381, 320.555 414, 318 414 L 315 414 315 434 L 315 454 318 454 L 321 454 321 439.133 L 321 424.266 325.097 421.554 C 327.351 420.063, 330.656 418.605, 332.443 418.316 C 336.173 417.710, 341.399 420.008, 342.970 422.945 C 343.541 424.012, 344 431.357, 344 439.434 L 344 454 347 454 L 350 454 350 438.648 C 350 424.352, 349.844 423.062, 347.730 419.898 C 343.845 414.083, 336.981 411.821, 329.791 413.988 M 367.907 415.327 C 365.483 416.606, 362.162 419.553, 360.527 421.875 C 357.848 425.678, 357.551 426.873, 357.527 433.960 C 357.502 441.102, 357.777 442.223, 360.513 446.162 C 365.644 453.548, 375.737 456.935, 383.685 453.939 C 385.233 453.355, 388.001 451.442, 389.834 449.689 L 393.169 446.500 392.455 451.500 C 391.494 458.225, 389.606 461.634, 385.733 463.642 C 381.375 465.901, 372.615 465.895, 366.689 463.628 C 361.276 461.558, 360.488 461.824, 361.390 465.418 C 362.199 468.642, 367.857 470.396, 377.502 470.412 C 385.934 470.426, 392.245 467.468, 395.449 462 C 397.320 458.807, 397.528 456.548, 397.819 436.250 L 398.137 414 395.569 414 C 393.274 414, 393 414.394, 393 417.696 L 393 421.392 389.750 418.330 C 383.673 412.605, 375.256 411.447, 367.907 415.327 M 293 415.893 C 293 417.875, 294.841 419, 298.082 419 C 299.900 419, 300 419.915, 300 436.500 L 300 454 302.500 454 L 305 454 305 434 L 305 414 299 414 C 293.780 414, 293 414.246, 293 415.893 M 145.984 419.849 C 142.807 421.536, 137.112 429.446, 138.254 430.587 C 138.512 430.845, 145.064 430.931, 152.815 430.778 L 166.906 430.500 165.011 426.271 C 161.617 418.694, 153.391 415.918, 145.984 419.849 M 189.893 420.373 C 183.273 424.970, 180.994 434.756, 184.852 442.016 C 192.158 455.765, 212.125 450.517, 212.352 434.788 C 212.487 425.466, 207.043 419.065, 198.324 418.294 C 194.373 417.945, 192.847 418.321, 189.893 420.373 M 370.241 419.995 C 365.361 422.970, 363.007 427.527, 363.007 434 C 363.007 440.473, 365.361 445.030, 370.241 448.005 C 376.821 452.017, 385.816 449.629, 390.005 442.759 C 392.867 438.066, 392.733 429.394, 389.730 424.898 C 385.366 418.365, 376.551 416.147, 370.241 419.995 M 0.082 669.750 L 0 700 30.250 699.918 C 59.653 699.839, 60.304 699.795, 53.516 698.341 C 39.356 695.307, 24.298 686.140, 15.490 675.191 C 9.525 667.777, 3.499 655.290, 1.642 646.500 C 0.210 639.723, 0.160 640.462, 0.082 669.750 M 698.183 646.750 C 696.609 655.102, 690.575 667.652, 684.510 675.191 C 675.702 686.140, 660.644 695.307, 646.484 698.341 C 639.696 699.795, 640.347 699.839, 669.750 699.918 L 700 700 700 670 C 700 653.500, 699.878 640, 699.728 640 C 699.578 640, 698.883 643.038, 698.183 646.750" stroke="none" fill="#f8fafb" fill-rule="evenodd"/><path d="M 53.500 1.642 C 33.321 5.904, 15.351 20.360, 6.438 39.500 C -0.485 54.366, 0 30.965, -0 350 C -0 669.035, -0.485 645.634, 6.438 660.500 C 13.264 675.158, 23.799 685.830, 38.500 692.978 C 54.116 700.571, 28.790 700, 350 700 C 671.210 700, 645.884 700.571, 661.500 692.978 C 665.900 690.839, 672.061 687.028, 675.191 684.510 C 685.911 675.886, 695.394 660.484, 697.978 647.500 C 698.635 644.200, 699.584 640.719, 700.086 639.764 C 701.213 637.623, 701.341 58.671, 700.214 59.368 C 699.782 59.635, 698.862 56.849, 698.170 53.177 C 696.607 44.891, 690.557 32.325, 684.510 24.809 C 675.487 13.594, 660.539 4.629, 645.792 1.589 C 638.848 0.157, 609.484 0.008, 349.292 0.082 C 98.480 0.152, 59.579 0.358, 53.500 1.642 M 0.493 350 C 0.493 509.775, 0.609 575.138, 0.750 495.250 C 0.891 415.363, 0.891 284.638, 0.750 204.750 C 0.609 124.863, 0.493 190.225, 0.493 350 M 483.737 229.696 C 475.040 230.454, 475.500 226.849, 475.500 294.171 C 475.500 349.242, 475.612 353.041, 477.285 354.714 C 478.960 356.389, 482.803 356.500, 538.999 356.500 C 595.189 356.500, 599.039 356.389, 600.714 354.715 C 602.380 353.050, 602.521 349.075, 602.807 295.715 C 603.121 236.968, 602.854 232.074, 599.241 230.401 C 597.468 229.579, 492.427 228.938, 483.737 229.696 M 166.302 247.958 C 163.434 249.183, 161 253.993, 161 258.435 C 161 260.926, 161.861 262.932, 163.918 265.234 C 166.395 268.006, 167.517 268.500, 171.337 268.500 C 176.226 268.500, 180.373 265.674, 182.118 261.153 C 183.289 258.121, 181.639 251.888, 179.045 249.541 C 176.777 247.488, 169.515 246.586, 166.302 247.958 M 496.400 250.400 C 490.866 255.934, 492.337 264.034, 499.494 267.430 C 506.401 270.708, 514 265.645, 514 257.765 C 514 252.255, 508.875 247, 503.500 247 C 500.625 247, 499.041 247.759, 496.400 250.400 M 97 293 L 97 338 125.500 338 L 154 338 154 329 L 154 320 135.500 320 L 117 320 117 284 L 117 248 107 248 L 97 248 97 293 M 261 293 L 261 338 270.500 338 L 280 338 280 324.500 C 280 317.075, 280.386 311, 280.859 311 C 281.331 311, 285.719 317.066, 290.609 324.480 L 299.500 337.959 311.250 337.980 C 317.712 337.991, 323 337.728, 323 337.395 C 323 337.063, 317.822 329.800, 311.493 321.256 C 301.677 308.003, 300.171 305.485, 301.243 304.113 C 301.934 303.228, 307.337 297.035, 313.250 290.350 C 319.163 283.666, 324 277.927, 324 277.598 C 324 277.269, 318.839 277, 312.532 277 L 301.064 277 291.282 288.394 C 283.771 297.143, 281.342 299.407, 280.820 298.144 C 280.446 297.240, 280.109 285.587, 280.070 272.250 L 280 248 270.500 248 L 261 248 261 293 M 437 265.687 L 437 283.374 434.250 280.751 C 430.289 276.972, 426.914 276, 417.751 276 C 405.008 276, 397.881 280.616, 392.378 292.435 C 389.130 299.410, 388.966 316.117, 392.079 323 C 399.193 338.734, 419.536 344.607, 433.543 334.971 C 435.917 333.337, 438.117 332, 438.430 332 C 438.744 332, 439 333.350, 439 335 L 439 338 447.500 338 L 456 338 456 293 L 456 248 446.500 248 L 437 248 437 265.687 M 219.302 277.688 C 217.543 278.685, 214.730 280.543, 213.052 281.818 L 210 284.136 210 280.568 L 210 277 201 277 L 192 277 192 307.500 L 192 338 201.500 338 L 211 338 211.024 321.250 C 211.051 302.436, 211.845 297.395, 215.190 294.822 C 218.260 292.460, 225.107 292.456, 228.020 294.815 C 231.042 297.262, 231.868 303.041, 231.940 322.250 L 232 338 241.500 338 L 251 338 251 318.832 C 251 290.746, 249.179 283.345, 241.107 278.631 C 236.205 275.767, 223.651 275.225, 219.302 277.688 M 340.006 278.213 C 336.301 279.635, 332.809 282.066, 329.278 285.684 C 322.579 292.545, 320.576 298.696, 321.195 310.501 C 321.693 319.985, 324.148 325.190, 331.072 331.446 C 337.676 337.412, 342.463 339.057, 353.795 339.254 C 362.660 339.407, 364.142 339.160, 369.057 336.709 C 372.051 335.216, 376.075 332.642, 378 330.990 C 380.877 328.519, 381.233 327.821, 380 327.065 C 379.175 326.559, 376.099 324.345, 373.165 322.144 L 367.830 318.143 363.339 321.571 C 357.946 325.688, 351.545 326.240, 346.299 323.040 C 343.678 321.443, 340 316.545, 340 314.655 C 340 314.410, 349.907 313.880, 362.015 313.477 L 384.030 312.744 383.429 306.122 C 382.434 295.146, 380.481 289.751, 375.493 284.204 C 369.827 277.901, 364.662 275.981, 353.572 276.052 C 347.866 276.089, 343.889 276.722, 340.006 278.213 M 553 277.530 C 551.075 278.396, 548.038 280.520, 546.250 282.249 L 543 285.392 543 281.696 L 543 278 534 278 L 525 278 525 308 L 525 338 534.381 338 L 543.763 338 544.182 318.750 C 544.617 298.777, 545.158 296.056, 549.113 293.940 C 552.190 292.293, 559.990 292.561, 561.805 294.377 C 563.994 296.565, 564.843 304.146, 564.927 322.250 L 565 338 574.500 338 L 584 338 583.980 319.250 C 583.949 290.565, 582.525 284.639, 574.306 279.007 C 569.882 275.976, 558.243 275.169, 553 277.530 M 162.667 277.667 C 162.300 278.033, 162 291.758, 162 308.167 L 162 338 171.500 338 L 181 338 181 307.500 L 181 277 172.167 277 C 167.308 277, 163.033 277.300, 162.667 277.667 M 494 308 L 494 338 503.500 338 L 513 338 513 308 L 513 278 503.500 278 L 494 278 494 308 M 345.775 291.454 C 341.897 294.144, 340 296.765, 340 299.434 C 340 300.768, 341.776 301, 352 301 C 363.836 301, 364 300.969, 364 298.712 C 364 297.454, 362.762 294.973, 361.250 293.199 C 357.298 288.563, 350.971 287.850, 345.775 291.454 M 416.467 293.942 C 411.248 296.598, 408.877 300.700, 408.721 307.342 C 408.570 313.786, 411.444 319.034, 416.417 321.394 C 426.705 326.276, 437.989 319.271, 437.995 308 C 438.001 295.848, 426.929 288.617, 416.467 293.942 M 97 421.934 L 97 454 113.500 454 L 130 454 130 451.500 L 130 449 116.515 449 L 103.030 449 102.765 419.750 L 102.500 390.500 99.750 390.184 L 97 389.867 97 421.934 M 299.427 395.765 C 296.196 397.978, 297.202 403.297, 301.043 404.301 C 303.309 404.894, 307 402.015, 307 399.655 C 307 396.594, 301.982 394.016, 299.427 395.765 M 145.327 414.046 C 140.516 415.518, 134.353 423.125, 133.050 429.201 C 131.252 437.588, 133.145 443.934, 139.165 449.689 C 143.373 453.712, 146.789 455, 153.249 455 C 161.398 455, 172.183 448.526, 170.658 444.551 C 169.814 442.351, 166.645 442.630, 164.407 445.102 C 159.707 450.297, 150.436 451.481, 144.570 447.638 C 141.737 445.782, 137.592 438.468, 138.521 436.966 C 138.867 436.406, 146.290 436, 156.187 436 L 173.256 436 172.585 431.750 C 170.801 420.445, 164.171 413.822, 154.160 413.345 C 151.047 413.197, 147.072 413.513, 145.327 414.046 M 190.383 414.084 C 186.037 415.345, 179.378 422.884, 177.960 428.149 C 176.534 433.445, 177.290 439.688, 180.001 445.002 C 185.475 455.733, 201.612 458.388, 210.053 449.947 C 211.982 448.018, 212 448.027, 212 451 C 212 453.667, 212.333 454, 215 454 L 218 454 218 434 L 218 414 215.500 414 C 213.284 414, 213 414.420, 213 417.696 L 213 421.392 209.685 418.179 C 204.730 413.377, 197.853 411.918, 190.383 414.084 M 240 414.088 C 238.625 414.617, 236.490 416.276, 235.255 417.775 L 233.010 420.500 233.005 417.250 C 233 414.307, 232.717 414, 230 414 L 227 414 227 434 L 227 454 230 454 L 233 454 233.044 443.250 C 233.068 437.337, 233.475 430.488, 233.950 428.029 C 234.976 422.711, 238.731 419, 243.087 419 C 246.448 419, 247.883 416.769, 245.989 414.487 C 244.586 412.796, 243.540 412.727, 240 414.088 M 263.500 415.414 C 260.750 416.832, 258.387 417.994, 258.250 417.996 C 258.113 417.998, 258 417.100, 258 416 C 258 414.533, 257.333 414, 255.500 414 L 253 414 253 434 L 253 454 255.473 454 L 257.947 454 258.223 439.358 L 258.500 424.717 262.343 421.608 C 265.495 419.059, 267.083 418.500, 271.179 418.500 C 275.411 418.500, 276.541 418.928, 278.587 421.306 C 280.905 424.001, 281 424.700, 281 439.056 L 281 454 284 454 L 287 454 287 439.468 C 287 423.793, 286.212 420.301, 281.751 416.190 C 277.749 412.503, 269.803 412.165, 263.500 415.414 M 329.791 413.988 C 328.302 414.437, 325.714 415.779, 324.041 416.971 L 321 419.136 321 416.568 C 321 414.381, 320.555 414, 318 414 L 315 414 315 434 L 315 454 318 454 L 321 454 321 439.133 L 321 424.266 325.097 421.554 C 327.351 420.063, 330.656 418.605, 332.443 418.316 C 336.173 417.710, 341.399 420.008, 342.970 422.945 C 343.541 424.012, 344 431.357, 344 439.434 L 344 454 347 454 L 350 454 350 438.648 C 350 424.352, 349.844 423.062, 347.730 419.898 C 343.845 414.083, 336.981 411.821, 329.791 413.988 M 367.907 415.327 C 365.483 416.606, 362.162 419.553, 360.527 421.875 C 357.848 425.678, 357.551 426.873, 357.527 433.960 C 357.502 441.102, 357.777 442.223, 360.513 446.162 C 365.644 453.548, 375.737 456.935, 383.685 453.939 C 385.233 453.355, 388.001 451.442, 389.834 449.689 L 393.169 446.500 392.455 451.500 C 391.494 458.225, 389.606 461.634, 385.733 463.642 C 381.375 465.901, 372.615 465.895, 366.689 463.628 C 361.276 461.558, 360.488 461.824, 361.390 465.418 C 362.199 468.642, 367.857 470.396, 377.502 470.412 C 385.934 470.426, 392.245 467.468, 395.449 462 C 397.320 458.807, 397.528 456.548, 397.819 436.250 L 398.137 414 395.569 414 C 393.274 414, 393 414.394, 393 417.696 L 393 421.392 389.750 418.330 C 383.673 412.605, 375.256 411.447, 367.907 415.327 M 293 415.893 C 293 417.875, 294.841 419, 298.082 419 C 299.900 419, 300 419.915, 300 436.500 L 300 454 302.500 454 L 305 454 305 434 L 305 414 299 414 C 293.780 414, 293 414.246, 293 415.893 M 145.984 419.849 C 142.807 421.536, 137.112 429.446, 138.254 430.587 C 138.512 430.845, 145.064 430.931, 152.815 430.778 L 166.906 430.500 165.011 426.271 C 161.617 418.694, 153.391 415.918, 145.984 419.849 M 189.893 420.373 C 183.273 424.970, 180.994 434.756, 184.852 442.016 C 192.158 455.765, 212.125 450.517, 212.352 434.788 C 212.487 425.466, 207.043 419.065, 198.324 418.294 C 194.373 417.945, 192.847 418.321, 189.893 420.373 M 370.241 419.995 C 365.361 422.970, 363.007 427.527, 363.007 434 C 363.007 440.473, 365.361 445.030, 370.241 448.005 C 376.821 452.017, 385.816 449.629, 390.005 442.759 C 392.867 438.066, 392.733 429.394, 389.730 424.898 C 385.366 418.365, 376.551 416.147, 370.241 419.995" stroke="none" fill="#0c64c4" fill-rule="evenodd"/></svg>