<?xml version="1.0" standalone="no"?>
<!DOCTYPE svg PUBLIC "-//W3C//DTD SVG 20010904//EN"
 "http://www.w3.org/TR/2001/REC-SVG-20010904/DTD/svg10.dtd">
<svg version="1.0" xmlns="http://www.w3.org/2000/svg"
 width="860.000000pt" height="767.000000pt" viewBox="0 0 860.000000 767.000000"
 preserveAspectRatio="xMidYMid meet">

<g transform="translate(0.000000,767.000000) scale(0.100000,-0.100000)"
fill="#000000" stroke="none">
<path d="M3995 7249 c-44 -5 -116 -15 -160 -22 l-80 -12 -6 -67 c-6 -69 -22
-103 -68 -146 -97 -90 -268 -57 -325 63 -9 19 -21 35 -25 35 -13 0 -220 -84
-269 -109 l-41 -21 14 -35 c53 -124 -54 -275 -194 -277 -61 0 -115 23 -157 67
l-33 36 -122 -93 c-67 -51 -127 -100 -132 -109 -7 -12 -4 -24 13 -47 31 -42
38 -127 16 -187 -30 -79 -114 -135 -202 -135 -18 0 -57 13 -88 29 l-56 30 -43
-52 c-62 -73 -157 -204 -157 -216 0 -5 8 -16 19 -23 10 -7 30 -30 44 -51 104
-154 -45 -359 -227 -312 -28 8 -55 10 -59 6 -9 -9 -130 -302 -125 -304 88 -43
129 -87 149 -161 34 -122 -87 -265 -215 -255 l-45 4 -10 -60 c-18 -102 -33
-254 -28 -269 3 -7 24 -16 47 -20 60 -9 133 -84 149 -154 26 -108 -43 -223
-152 -250 -42 -11 -47 -15 -47 -40 1 -33 16 -152 31 -244 l11 -66 32 5 c89 14
194 -59 222 -154 17 -58 13 -96 -17 -154 -21 -42 -70 -86 -105 -95 -13 -3 -24
-8 -24 -9 0 -8 72 -188 99 -249 26 -56 34 -67 49 -61 40 17 123 17 167 0 76
-28 135 -117 135 -202 0 -39 -46 -130 -76 -150 -13 -8 -24 -20 -24 -26 0 -12
91 -135 157 -214 l45 -53 41 24 c86 50 172 43 246 -20 75 -65 94 -189 39 -271
l-25 -37 41 -35 c23 -19 83 -65 134 -104 l93 -69 36 37 c45 46 88 65 150 65
146 -1 251 -149 198 -277 -8 -20 -14 -37 -13 -38 14 -8 179 -78 237 -101 81
-31 75 -33 113 35 37 68 152 108 233 81 47 -16 114 -75 132 -117 7 -18 13 -57
13 -86 l0 -54 128 -17 c234 -31 212 -30 212 -4 1 34 34 99 66 130 108 101 281
63 338 -74 9 -21 16 -47 16 -58 0 -24 -21 -24 213 6 l127 17 0 54 c0 29 6 68
13 86 18 42 85 101 132 117 81 27 196 -13 233 -81 38 -68 32 -66 113 -35 58
23 223 93 237 101 1 1 -5 18 -13 38 -53 128 52 276 198 277 62 0 105 -19 150
-65 l36 -37 93 69 c51 39 111 85 134 104 l41 35 -25 37 c-55 82 -36 206 39
271 74 63 160 70 246 20 l41 -24 45 53 c66 79 157 202 157 214 0 6 -11 18 -24
26 -30 20 -76 111 -76 150 0 85 59 174 135 202 44 17 127 17 167 0 15 -6 23 5
49 61 27 61 99 241 99 249 0 1 -11 6 -24 9 -56 14 -114 87 -131 163 -25 118
111 259 231 240 l32 -5 11 66 c15 91 30 211 31 244 0 24 -6 28 -54 42 -107 31
-172 144 -145 251 17 68 90 142 149 151 23 4 44 13 47 20 5 15 -10 167 -28
269 l-10 60 -45 -4 c-128 -10 -249 133 -215 255 20 74 61 118 149 161 5 2
-116 295 -125 304 -4 4 -31 2 -59 -6 -78 -20 -134 -5 -194 54 -55 53 -76 109
-65 177 6 44 44 109 76 132 11 7 19 18 19 23 0 12 -95 143 -157 216 l-43 52
-56 -30 c-31 -16 -70 -29 -88 -29 -88 0 -172 56 -202 135 -22 60 -15 145 16
187 17 23 20 35 13 47 -5 9 -65 58 -132 109 l-122 93 -33 -36 c-42 -44 -96
-67 -157 -67 -140 2 -247 153 -194 277 l14 35 -41 21 c-49 25 -256 109 -269
109 -4 0 -16 -16 -25 -35 -57 -120 -228 -153 -325 -63 -46 43 -62 77 -68 146
l-6 67 -110 16 c-60 9 -136 18 -167 21 -52 4 -58 3 -58 -14 0 -30 -29 -91 -58
-122 -103 -110 -288 -75 -346 66 -9 21 -16 47 -16 58 0 11 -3 19 -7 19 -5 -1
-44 -6 -88 -10z m-307 -1220 c196 -50 337 -193 398 -404 14 -49 18 -117 21
-387 l5 -328 -241 0 -241 0 0 283 c0 256 -2 286 -20 324 -24 54 -70 83 -130
83 -57 0 -101 -27 -126 -76 -18 -38 -19 -78 -22 -1174 -2 -624 0 -1155 3
-1179 5 -30 16 -54 35 -73 25 -24 36 -28 85 -28 63 0 103 17 134 56 20 26 21
37 21 365 l0 338 -77 3 -78 3 0 205 0 205 318 3 318 2 -4 -582 c-3 -511 -6
-591 -21 -647 -53 -203 -185 -332 -396 -388 -96 -25 -318 -22 -423 6 -209 55
-327 181 -371 394 -14 67 -16 222 -16 1290 0 1181 1 1216 20 1293 64 252 236
402 496 434 91 11 221 2 312 -21z m1552 9 c18 -108 456 -3395 453 -3400 -2 -5
-112 -8 -244 -8 -239 0 -240 0 -248 23 -4 12 -29 191 -55 397 -26 206 -50 383
-52 393 -5 15 -20 17 -139 17 l-133 0 -6 -37 c-4 -21 -26 -198 -51 -393 -25
-195 -48 -365 -50 -377 l-5 -23 -245 0 c-134 0 -246 4 -249 8 -4 7 440 3363
449 3390 3 9 70 12 290 12 157 0 285 -1 285 -2z"/>
<path d="M4885 4256 c-55 -21 -111 -85 -124 -144 -35 -167 132 -296 287 -221
95 46 133 179 79 274 -47 83 -153 123 -242 91z"/>
<path d="M1719 977 c-58 -39 -64 -61 -67 -269 -3 -170 -1 -192 17 -233 23 -53
63 -75 137 -75 67 0 109 24 134 75 18 37 20 58 18 151 l-3 109 -77 3 -78 3 0
-56 c0 -49 2 -55 21 -55 18 0 20 -5 17 -51 -3 -59 -25 -83 -52 -60 -24 20 -24
342 0 362 20 17 48 1 52 -30 3 -21 7 -22 55 -16 29 4 56 10 61 12 12 8 0 71
-19 100 -36 55 -155 71 -216 30z"/>
<path d="M2010 700 l0 -300 135 0 135 0 0 60 0 60 -75 0 -75 0 0 65 0 65 65 0
65 0 0 55 0 55 -65 0 -65 0 0 60 0 60 75 0 75 0 0 60 0 60 -135 0 -135 0 0
-300z"/>
<path d="M2325 987 c-3 -7 -4 -140 -3 -297 l3 -285 58 -3 57 -3 0 143 1 143
33 -85 c18 -47 44 -111 56 -142 l23 -58 48 0 49 0 0 300 0 300 -55 0 -55 0 0
-142 -1 -143 -48 121 c-69 171 -64 164 -117 164 -27 0 -47 -5 -49 -13z"/>
<path d="M2715 988 c-3 -7 -4 -141 -3 -298 l3 -285 135 0 135 0 3 58 3 57 -81
0 -80 0 0 65 0 65 70 0 70 0 0 55 0 55 -70 0 -70 0 0 60 0 60 80 0 81 0 -3 58
-3 57 -133 3 c-101 2 -134 0 -137 -10z"/>
<path d="M3035 989 c-3 -8 -4 -142 -3 -299 l3 -285 58 -3 57 -3 0 116 c0 86 3
116 12 113 6 -2 15 -15 19 -29 4 -13 20 -63 34 -111 l26 -88 119 0 c134 0 120
-8 135 83 6 35 8 37 45 37 42 0 43 -2 55 -77 l7 -43 59 0 c47 0 59 3 59 16 0
17 -97 536 -106 567 -4 14 -17 17 -74 17 -64 0 -70 -2 -75 -22 -3 -13 -27
-142 -55 -287 -27 -145 -51 -265 -53 -267 -2 -2 -21 50 -42 116 l-39 120 22
23 c69 73 50 251 -30 293 -44 24 -225 33 -233 13z m179 -131 c31 -44 7 -108
-40 -108 -23 0 -24 3 -24 65 0 62 1 65 24 65 14 0 32 -10 40 -22z m345 -190
c1 -32 -2 -38 -20 -38 -20 0 -21 3 -14 73 9 105 18 123 26 57 4 -30 7 -72 8
-92z"/>
<path d="M3755 987 c-3 -7 -4 -140 -3 -297 l3 -285 135 0 135 0 3 58 3 57 -81
0 -80 0 0 240 0 240 -55 0 c-36 0 -57 -5 -60 -13z"/>
<path d="M4295 988 c-2 -7 -29 -141 -58 -296 -40 -210 -51 -285 -42 -289 7 -2
34 -3 61 -1 l49 3 10 55 11 55 41 3 41 3 7 -43 c12 -80 10 -78 76 -78 32 0 59
3 59 8 0 19 -109 573 -115 582 -9 15 -135 13 -140 -2z m89 -285 l7 -73 -26 0
c-19 0 -26 4 -22 14 3 7 9 51 13 97 8 94 16 83 28 -38z"/>
<path d="M4643 981 c-85 -53 -97 -212 -20 -277 17 -15 48 -34 67 -42 56 -23
70 -40 70 -87 0 -49 -21 -75 -48 -58 -10 5 -18 22 -20 37 -2 18 -8 26 -16 23
-8 -3 -34 -9 -60 -12 -41 -7 -46 -10 -46 -34 0 -40 33 -92 71 -113 25 -14 49
-18 92 -15 103 6 142 55 142 177 0 102 -19 133 -108 177 -72 36 -89 63 -68
109 17 37 61 25 61 -18 0 -10 7 -18 16 -18 25 0 104 22 104 29 0 29 -25 82
-50 106 -26 25 -40 30 -93 33 -49 2 -69 -1 -94 -17z"/>
<path d="M4991 982 c-54 -29 -73 -73 -69 -159 3 -64 7 -76 33 -103 17 -18 56
-45 88 -61 l57 -29 0 -49 c0 -51 -16 -76 -43 -66 -8 4 -17 19 -20 34 -6 28 -6
28 -59 19 -29 -5 -56 -13 -60 -17 -11 -9 11 -82 30 -105 39 -44 131 -59 195
-32 53 22 70 59 75 156 3 76 1 89 -20 120 -13 20 -45 46 -77 62 -29 15 -59 32
-67 39 -18 15 -18 73 0 88 20 17 46 2 46 -26 0 -24 2 -25 46 -18 82 12 88 22
60 90 -29 70 -138 98 -215 57z"/>
<path d="M5275 987 c-3 -7 -4 -140 -3 -297 l3 -285 133 -3 132 -3 0 61 0 60
-75 0 -75 0 0 65 0 65 70 0 70 0 0 55 0 55 -70 0 -70 0 0 60 0 60 75 0 75 0 0
60 0 60 -130 0 c-96 0 -132 -3 -135 -13z"/>
<path d="M5585 988 c-3 -7 -4 -141 -3 -298 l3 -285 58 -3 57 -3 1 138 1 138
26 -78 26 -78 40 3 c39 3 40 4 62 68 l22 65 4 -125 3 -125 58 -3 57 -3 0 301
0 300 -54 0 -54 0 -40 -112 c-22 -62 -43 -123 -47 -136 -4 -13 -9 -21 -13 -18
-3 3 -26 63 -52 134 l-46 127 -52 3 c-36 2 -54 -1 -57 -10z"/>
<path d="M6065 989 c-3 -8 -4 -142 -3 -299 l3 -285 90 0 c153 1 204 46 205
180 0 61 -26 125 -51 125 -6 0 1 14 15 30 58 70 39 197 -37 237 -43 23 -214
32 -222 12z m173 -152 c4 -43 -11 -67 -39 -67 -16 0 -19 8 -19 56 0 54 0 55
28 52 23 -3 27 -8 30 -41z m-4 -193 c18 -18 21 -76 6 -105 -6 -11 -21 -19 -35
-19 -24 0 -25 2 -25 70 0 62 2 70 19 70 11 0 27 -7 35 -16z"/>
<path d="M6425 987 c-3 -7 -4 -140 -3 -297 l3 -285 135 0 135 0 3 58 3 57 -81
0 -80 0 0 240 0 240 -55 0 c-36 0 -57 -5 -60 -13z"/>
<path d="M6650 989 c0 -6 25 -86 55 -178 55 -166 55 -168 55 -290 l0 -122 58
3 57 3 6 140 c5 136 7 144 57 290 29 82 52 153 52 157 0 4 -27 8 -60 8 l-59 0
-10 -37 c-5 -21 -15 -66 -22 -101 -6 -35 -15 -60 -19 -55 -4 4 -13 33 -19 63
-7 30 -16 72 -22 93 l-10 37 -59 0 c-37 0 -60 -4 -60 -11z"/>
</g>
</svg>
